<svg width="40" height="40" viewBox="0 0 40 40" fill="none" xmlns="http://www.w3.org/2000/svg">
<path fill-rule="evenodd" clip-rule="evenodd" d="M20 7.5C13.0964 7.5 7.5 13.0964 7.5 20C7.5 26.9036 13.0964 32.5 20 32.5C26.9036 32.5 32.5 26.9036 32.5 20C32.5 19.2224 32.4291 18.4624 32.2938 17.7258C32.1691 17.0468 32.6185 16.3953 33.2975 16.2706C33.9764 16.1458 34.628 16.5952 34.7527 17.2742C34.9152 18.159 35 19.0702 35 20C35 28.2843 28.2843 35 20 35C11.7157 35 5 28.2843 5 20C5 11.7157 11.7157 5 20 5C23.0167 5 25.8289 5.89183 28.1827 7.42657C28.761 7.80363 28.9241 8.57809 28.5471 9.15638C28.17 9.73467 27.3956 9.89781 26.8173 9.52075C24.8572 8.24277 22.5173 7.5 20 7.5Z" fill="#223CC2" stroke="white" stroke-width="0.2"/>
<path d="M32.1339 11.6161C32.622 12.1043 32.622 12.8957 32.1339 13.3839L20.8839 24.6339C20.3957 25.122 19.6043 25.122 19.1161 24.6339L14.1161 19.6339C13.628 19.1457 13.628 18.3543 14.1161 17.8661C14.6043 17.378 15.3957 17.378 15.8839 17.8661L20 21.9822L30.3661 11.6161C30.8543 11.128 31.6457 11.128 32.1339 11.6161Z" fill="#FFCB5D" stroke="white" stroke-width="0.2"/>
</svg>
