<svg width="48" height="48" viewBox="0 0 48 48" fill="none" xmlns="http://www.w3.org/2000/svg">
<path d="M23.998 5.62408C23.2214 5.62408 22.5918 6.25371 22.5918 7.03033C22.5918 7.80696 23.2214 8.43658 23.998 8.43658C28.6512 8.43658 32.4369 12.2216 32.4369 16.8741C32.4369 17.6507 33.0666 18.2803 33.8432 18.2803C34.6198 18.2803 35.2494 17.6507 35.2494 16.8741C35.2494 10.6708 30.2021 5.62408 23.998 5.62408Z" fill="#FFCB5D"/>
<path d="M20.3743 0.377803C14.0208 1.7054 8.86925 6.80765 7.51372 13.2006C6.36913 18.5989 7.7796 24.0186 11.3834 28.07C13.1451 30.0502 14.1553 32.6643 14.1553 35.2491V38.0616C14.1553 39.9328 15.3804 41.5225 17.0703 42.0731C17.6261 45.3567 20.4761 47.999 23.9991 47.999C27.5212 47.999 30.3719 45.3576 30.9279 42.0731C32.6178 41.5225 33.8429 39.9328 33.8429 38.0615V35.249C33.8429 32.6591 34.8565 30.0765 36.6968 27.9769C39.3906 24.9037 40.8741 20.9606 40.8741 16.8741C40.8741 6.22733 31.1289 -1.86901 20.3743 0.377803ZM23.9991 45.1866C22.1914 45.1866 20.6065 43.9427 20.0212 42.2709H27.9769C27.3917 43.9427 25.8068 45.1866 23.9991 45.1866ZM31.0304 38.0616C31.0304 38.837 30.3995 39.4678 29.6241 39.4678H18.3741C17.5987 39.4678 16.9678 38.837 16.9678 38.0616V36.6553H31.0304V38.0616ZM34.5818 26.1231C32.6205 28.3607 31.4139 31.0588 31.1077 33.8428H16.8908C16.585 31.0573 15.3814 28.3326 13.485 26.2007C10.4815 22.8242 9.30782 18.2984 10.2651 13.784C11.3825 8.5139 15.6763 4.2328 20.9496 3.13096C29.9519 1.24968 38.0616 8.01018 38.0616 16.8741C38.0616 20.2783 36.8258 23.563 34.5818 26.1231Z" fill="#223CC2"/>
<path d="M4.21875 16.8741H1.40625C0.629625 16.8741 0 17.5037 0 18.2803C0 19.057 0.629625 19.6866 1.40625 19.6866H4.21875C4.99538 19.6866 5.625 19.057 5.625 18.2803C5.625 17.5037 4.99538 16.8741 4.21875 16.8741Z" fill="#FFCB5D"/>
<path d="M4.80144 9.84281L2.81272 7.85409C2.26363 7.3049 1.37319 7.3049 0.824 7.85409C0.274813 8.40328 0.274813 9.29362 0.824 9.84281L2.81272 11.8315C3.36181 12.3807 4.25225 12.3808 4.80144 11.8315C5.35063 11.2823 5.35063 10.392 4.80144 9.84281Z" fill="#FFCB5D"/>
<path d="M4.80144 24.7291C4.25225 24.1799 3.36181 24.1799 2.81272 24.7291L0.824 26.7178C0.274813 27.267 0.274813 28.1573 0.824 28.7065C1.37309 29.2557 2.26353 29.2558 2.81272 28.7065L4.80144 26.7178C5.35063 26.1686 5.35063 25.2783 4.80144 24.7291Z" fill="#FFCB5D"/>
<path d="M46.5938 16.8741H43.7812C43.0046 16.8741 42.375 17.5037 42.375 18.2803C42.375 19.057 43.0046 19.6866 43.7812 19.6866H46.5938C47.3704 19.6866 48 19.057 48 18.2803C48 17.5037 47.3704 16.8741 46.5938 16.8741Z" fill="#FFCB5D"/>
<path d="M47.1764 7.85409C46.6274 7.3049 45.7369 7.3049 45.1877 7.85409L43.199 9.84281C42.6498 10.392 42.6498 11.2823 43.199 11.8315C43.7481 12.3806 44.6385 12.3807 45.1877 11.8315L47.1764 9.84281C47.7256 9.29362 47.7256 8.40328 47.1764 7.85409Z" fill="#FFCB5D"/>
<path d="M47.1764 26.7178L45.1877 24.7291C44.6386 24.1799 43.7482 24.1799 43.199 24.7291C42.6498 25.2783 42.6498 26.1686 43.199 26.7178L45.1877 28.7065C45.7368 29.2556 46.6273 29.2557 47.1764 28.7065C47.7256 28.1573 47.7256 27.267 47.1764 26.7178Z" fill="#FFCB5D"/>
</svg>
