<svg width="48" height="48" viewBox="0 0 48 48" fill="none" xmlns="http://www.w3.org/2000/svg">
<path d="M24 14.0625C20.123 14.0625 16.9688 10.9083 16.9688 7.03125C16.9688 3.15422 20.123 0 24 0C27.877 0 31.0312 3.15422 31.0312 7.03125C31.0312 10.9083 27.877 14.0625 24 14.0625ZM24 2.8125C21.6738 2.8125 19.7812 4.70503 19.7812 7.03125C19.7812 9.35747 21.6738 11.25 24 11.25C26.3262 11.25 28.2187 9.35747 28.2187 7.03125C28.2187 4.70503 26.3262 2.8125 24 2.8125Z" fill="#FFCB5D"/>
<path d="M0.940655 40.1718C-0.997907 36.8142 0.156625 32.5055 3.51428 30.5669C6.87212 28.6285 11.1807 29.783 13.1192 33.1406C15.0622 36.506 13.9113 40.8022 10.5455 42.7454C7.16659 44.6963 2.86684 43.5081 0.940655 40.1718ZM4.92053 33.0027C2.90594 34.1657 2.21331 36.751 3.37637 38.7656C4.53391 40.7704 7.11569 41.478 9.13928 40.3097C11.1585 39.1439 11.8494 36.5663 10.6835 34.5468C9.52037 32.5323 6.93522 31.8395 4.92053 33.0027Z" fill="#FFCB5D"/>
<path d="M37.4536 42.7455C34.0882 40.8025 32.9367 36.5064 34.88 33.1406C36.8184 29.783 41.1273 28.6284 44.4848 30.567C47.8424 32.5054 48.9969 36.8142 47.0585 40.1718C45.1286 43.5144 40.825 44.692 37.4536 42.7455ZM37.3157 34.5468C36.1499 36.566 36.8404 39.1439 38.8599 40.3098C40.8743 41.4728 43.4597 40.7802 44.6228 38.7656C45.7859 36.751 45.0933 34.1658 43.0787 33.0027C41.0535 31.8334 38.4727 32.5429 37.3157 34.5468Z" fill="#FFCB5D"/>
<path d="M5.74578 25.79L2.9375 25.6354C3.12106 22.3017 4.10938 19.0212 5.79566 16.1486C7.43525 13.3554 9.73456 10.9393 12.4451 9.16174L13.9874 11.5136C9.14413 14.69 6.06313 20.027 5.74578 25.79Z" fill="#223CC2"/>
<path d="M42.2534 25.79C41.936 20.027 38.855 14.69 34.0117 11.5136L35.5541 9.16174C38.2646 10.9393 40.5639 13.3553 42.2035 16.1486C43.8898 19.0212 44.8781 22.3017 45.0617 25.6354L42.2534 25.79Z" fill="#223CC2"/>
<path d="M24.0008 47.9999C20.6562 47.9999 17.457 47.2396 14.4922 45.74L15.7617 43.2302C18.3292 44.5289 21.1013 45.1874 24.0008 45.1874C26.9003 45.1874 29.6724 44.5289 32.2399 43.2303L33.5094 45.7401C30.5445 47.2396 27.3454 47.9999 24.0008 47.9999Z" fill="#223CC2"/>
</svg>
