<svg width="48" height="48" viewBox="0 0 48 48" fill="none" xmlns="http://www.w3.org/2000/svg">
<path d="M13.5651 18.7826H9.39117C8.81517 18.7826 8.34766 19.2501 8.34766 19.8261V28.1739C8.34766 28.7499 8.81517 29.2174 9.39117 29.2174C9.96717 29.2174 10.4347 28.7499 10.4347 28.1739V20.8695H13.5651C14.1411 20.8695 14.6086 20.402 14.6086 19.826C14.6086 19.25 14.1411 18.7826 13.5651 18.7826Z" fill="#223CC2"/>
<path d="M11.4781 22.9565H9.39117C8.81517 22.9565 8.34766 23.424 8.34766 24C8.34766 24.576 8.81517 25.0434 9.39117 25.0434H11.4781C12.0541 25.0434 12.5216 24.5759 12.5216 23.9999C12.5216 23.4239 12.0541 22.9565 11.4781 22.9565Z" fill="#223CC2"/>
<path d="M24 0C10.7666 0 0 10.7666 0 24C0 37.2333 10.7666 47.9999 24 47.9999C37.2333 47.9999 47.9999 37.2333 47.9999 24C47.9999 10.7666 37.2334 0 24 0ZM24 45.913C11.9165 45.913 2.08692 36.0834 2.08692 24C2.08692 11.9165 11.9165 2.08692 24 2.08692C36.0834 2.08692 45.913 11.9165 45.913 24C45.913 36.0834 36.0834 45.913 24 45.913Z" fill="#223CC2"/>
<path d="M37.8347 12.912C34.4434 8.68593 29.4013 6.26093 24.0003 6.26093C18.5992 6.26093 13.5571 8.68593 10.1658 12.912C9.80474 13.3607 9.87576 14.0181 10.3265 14.3791C10.7753 14.7402 11.4327 14.6692 11.7916 14.2184C14.7863 10.4869 19.2358 8.34775 24.0003 8.34775C28.7648 8.34775 33.2142 10.4869 36.2069 14.2184C36.4135 14.4751 36.7161 14.6086 37.0208 14.6086C37.2525 14.6086 37.4821 14.5335 37.674 14.379C38.1248 14.0181 38.1958 13.3607 37.8347 12.912Z" fill="#FFCB5D"/>
<path d="M36.8228 34.7206C36.4096 34.3261 35.7459 34.3429 35.3494 34.7602C32.3547 37.9136 28.3248 39.652 24.0006 39.652C19.6764 39.652 15.6465 37.9135 12.6538 34.7602C12.2594 34.3387 11.5957 34.3261 11.1805 34.7206C10.7589 35.1171 10.7443 35.7787 11.1408 36.1961C14.5322 39.771 19.0984 41.739 24.0007 41.739C28.9029 41.739 33.4691 39.771 36.8625 36.1961C37.259 35.7787 37.2423 35.1171 36.8228 34.7206Z" fill="#FFCB5D"/>
<path d="M20.2306 25.0164C21.7666 24.8181 22.9562 23.5012 22.9562 21.913C22.9562 20.1871 21.5517 18.7826 19.8257 18.7826H17.7388C17.1628 18.7826 16.6953 19.2501 16.6953 19.8261V23.9916C16.6953 23.9958 16.6953 24.0021 16.6953 24.0062V28.1739C16.6953 28.7499 17.1628 29.2174 17.7388 29.2174C18.3148 29.2174 18.7823 28.7499 18.7823 28.1739V26.519L21.174 28.9127C21.3785 29.1151 21.6456 29.2174 21.9128 29.2174C22.1799 29.2174 22.447 29.1152 22.6495 28.9106C23.0565 28.5037 23.0565 27.8421 22.6495 27.4351L20.2306 25.0164ZM18.7823 22.9565V20.8696H19.8258C20.3998 20.8696 20.8694 21.3371 20.8694 21.9131C20.8694 22.4891 20.3998 22.9566 19.8258 22.9566H18.7823V22.9565Z" fill="#223CC2"/>
<path d="M30.2604 27.1304H27.13V20.8695H30.2604C30.8364 20.8695 31.3039 20.402 31.3039 19.826C31.3039 19.25 30.8364 18.7826 30.2604 18.7826H26.0865C25.5105 18.7826 25.043 19.2501 25.043 19.8261V28.1739C25.043 28.7499 25.5105 29.2174 26.0865 29.2174H30.2604C30.8364 29.2174 31.3039 28.7499 31.3039 28.1739C31.3039 27.5979 30.8364 27.1304 30.2604 27.1304Z" fill="#223CC2"/>
<path d="M28.1734 22.9565H26.0865C25.5105 22.9565 25.043 23.424 25.043 24C25.043 24.576 25.5105 25.0434 26.0865 25.0434H28.1734C28.7494 25.0434 29.2169 24.5759 29.2169 23.9999C29.2169 23.4239 28.7494 22.9565 28.1734 22.9565Z" fill="#223CC2"/>
<path d="M38.6081 27.1304H35.4776V20.8695H38.6081C39.1841 20.8695 39.6516 20.402 39.6516 19.826C39.6516 19.25 39.1841 18.7826 38.6081 18.7826H34.4341C33.8581 18.7826 33.3906 19.2501 33.3906 19.8261V28.1739C33.3906 28.7499 33.8581 29.2174 34.4341 29.2174H38.6081C39.1841 29.2174 39.6516 28.7499 39.6516 28.1739C39.6516 27.5979 39.1841 27.1304 38.6081 27.1304Z" fill="#223CC2"/>
<path d="M36.5211 22.9565H34.4341C33.8581 22.9565 33.3906 23.424 33.3906 24C33.3906 24.576 33.8581 25.0434 34.4341 25.0434H36.5211C37.0971 25.0434 37.5646 24.5759 37.5646 23.9999C37.5646 23.4239 37.0971 22.9565 36.5211 22.9565Z" fill="#223CC2"/>
</svg>
