<svg width="48" height="48" viewBox="0 0 48 48" fill="none" xmlns="http://www.w3.org/2000/svg">
<g clip-path="url(#clip0)">
<path d="M39.1461 0H26.0033H12.1291C8.79124 0.00614282 6.08255 2.70213 6.06055 6.03996V41.9597C6.08255 45.2976 8.79124 47.9936 12.1291 47.9997H39.1632C39.9055 48.0107 40.6213 47.7249 41.1518 47.2054C41.6579 46.6854 41.9409 45.9883 41.9403 45.2626V2.79427C41.9372 1.25228 40.6881 0.00314284 39.1461 0ZM25 2H35.5L36 16L33.5 17.5L31 11.5C30.8677 12.5 30.6609 12.5964 30.5 12.5C29.9587 12.1753 30.8247 10.9587 30.5 11.5L27.661 17L26.0033 15.9999L25 2ZM8.37482 6.03996C8.38425 3.9704 10.0595 2.29513 12.1291 2.2857H24.8719V13.9428C24.8289 14.8706 25.1167 17.2129 26 17.5C27.0057 17.8029 27.9629 16.8571 28.5 16L30.5175 11.9371L32.2947 14.7942C32.8261 15.6399 33.4657 17.2914 34.5 17C35.5 17 37.3139 16.0458 36.5 15L36.1861 2.31427H39.1632C39.4271 2.31741 39.6401 2.53041 39.6432 2.79427V35.9362C39.4846 35.9094 39.3241 35.8961 39.1632 35.8969H12.1291C10.7658 35.8965 9.44253 36.3578 8.37482 37.2055V6.03996ZM39.6432 40.8283L13.2948 40.8569C12.6637 40.8569 12.1519 41.3686 12.1519 41.9997C12.1519 42.6309 12.6637 43.1426 13.2948 43.1426L39.6432 43.114V45.2397C39.6444 45.3676 39.5952 45.4909 39.5061 45.5826C39.4143 45.6716 39.2911 45.7209 39.1632 45.7197H12.1291C10.0541 45.7197 8.37196 44.0376 8.37196 41.9626C8.37196 39.8876 10.0541 38.2055 12.1291 38.2055H39.1632C39.4271 38.2086 39.6401 38.4216 39.6432 38.6855V40.8283Z" fill="#223CC2"/>
<path d="M25.0001 1H36.0001V15C36.0001 15.9763 35.5 17 34.5001 17C32.2909 17 30.9999 13.5 30.5 12.5C30.366 12.232 28.7092 17 26.5001 17C25.5 17 25.0001 15.9763 25.0001 15C24.9999 10 25.0001 1 25.0001 1Z" stroke="#FFCB5D" stroke-width="2"/>
</g>
<defs>
<clipPath id="clip0">
<rect width="48" height="48" fill="white"/>
</clipPath>
</defs>
</svg>
