<svg fill="currentColor" width="9" height="16" viewBox="0 0 9 16" xmlns="http://www.w3.org/2000/svg">
<path d="M0.830183 1.13675L0.830676 1.13626C0.950161 1.01665 1.11259 0.950116 1.28502 0.950073C1.45818 0.950266 1.62335 1.01707 1.74255 1.1363L1.74273 1.13648L8.17093 7.54416C8.29919 7.67234 8.37996 7.83373 8.37996 7.99486V7.99732C8.37996 8.16037 8.29917 8.32167 8.17109 8.44962C8.17105 8.44966 8.17101 8.4497 8.17097 8.44974L1.72536 14.8633L1.72513 14.8636C1.4763 15.1122 1.07051 15.1122 0.821681 14.8636L0.821614 14.8635L0.348941 14.3917C0.348932 14.3917 0.348924 14.3917 0.348915 14.3917C0.228754 14.2717 0.162695 14.1121 0.162695 13.9407C0.162695 13.7693 0.228752 13.6099 0.348899 13.49L0.348941 13.4899L5.74336 8.10299L5.84965 7.99685L5.74336 7.89071L0.354962 2.51003C0.23468 2.38982 0.168557 2.23029 0.168557 2.05897C0.168557 1.88769 0.234559 1.7285 0.354702 1.60829C0.354789 1.6082 0.354876 1.60812 0.354962 1.60803L0.830183 1.13675Z" stroke="white" stroke-width="0.3"/>
</svg>
