<svg fill="currentColor" width="9" height="16" viewBox="0 0 9 16" xmlns="http://www.w3.org/2000/svg">
<path d="M8.17275 14.8633L8.17225 14.8637C8.05277 14.9833 7.89034 15.0499 7.71791 15.0499C7.54475 15.0497 7.37958 14.9829 7.26038 14.8637L7.2602 14.8635L0.832001 8.45584C0.703741 8.32766 0.622968 8.16627 0.622968 8.00514L0.622968 8.00268C0.622968 7.83963 0.703762 7.67833 0.831835 7.55038C0.831876 7.55034 0.831918 7.5503 0.831959 7.55026L7.27757 1.13666L7.2778 1.13643C7.52663 0.88776 7.93242 0.88776 8.18125 1.13643L8.18132 1.13649L8.65399 1.60828C8.654 1.60829 8.65401 1.60829 8.65401 1.6083C8.77418 1.72831 8.84023 1.88789 8.84023 2.05929C8.84023 2.23069 8.77418 2.39015 8.65403 2.51003L8.65399 2.51007L3.25956 7.89701L3.15328 8.00315L3.25957 8.10929L8.64797 13.49C8.76825 13.6102 8.83437 13.7697 8.83437 13.941C8.83437 14.1123 8.76837 14.2715 8.64823 14.3917C8.64814 14.3918 8.64805 14.3919 8.64797 14.392L8.17275 14.8633Z" stroke="white" stroke-width="0.3"/>
</svg>
