<svg width="17" height="14" viewBox="0 0 17 14" fill="none" xmlns="http://www.w3.org/2000/svg">
<path fill-rule="evenodd" clip-rule="evenodd" d="M0 0.530146C0 0.237354 0.237354 0 0.530145 0H2.99808C3.86597 0 4.62872 0.57534 4.86715 1.40985L5.27218 2.82744H14.6238C15.8885 2.82744 16.8164 4.0159 16.5097 5.24277L15.4494 9.48393C15.233 10.3493 14.4555 10.9563 13.5636 10.9563H7.95826C7.09036 10.9563 6.32762 10.381 6.08919 9.54649L3.84766 1.70113C3.73928 1.32181 3.39258 1.06029 2.99808 1.06029H0.530145C0.237354 1.06029 0 0.822937 0 0.530146ZM5.57512 3.88773L7.10868 9.25521C7.21706 9.63453 7.56376 9.89605 7.95826 9.89605H13.5636C13.969 9.89605 14.3224 9.62011 14.4208 9.22677L15.481 4.98561C15.6205 4.42794 15.1987 3.88773 14.6238 3.88773H5.57512ZM7.06861 13.2536C7.06861 12.9608 7.30596 12.7235 7.59875 12.7235H8.30561C8.5984 12.7235 8.83576 12.9608 8.83576 13.2536C8.83576 13.5464 8.5984 13.7838 8.30561 13.7838H7.59875C7.30596 13.7838 7.06861 13.5464 7.06861 13.2536ZM12.7235 13.2536C12.7235 12.9608 12.9608 12.7235 13.2536 12.7235H13.9605C14.2533 12.7235 14.4906 12.9608 14.4906 13.2536C14.4906 13.5464 14.2533 13.7838 13.9605 13.7838H13.2536C12.9608 13.7838 12.7235 13.5464 12.7235 13.2536Z" fill="white"/>
</svg>
