<svg width="24" height="24" viewBox="0 0 24 24" fill="none" xmlns="http://www.w3.org/2000/svg">
<path fill-rule="evenodd" clip-rule="evenodd" d="M12 4.5C7.85786 4.5 4.5 7.85786 4.5 12C4.5 16.1421 7.85786 19.5 12 19.5C16.1421 19.5 19.5 16.1421 19.5 12C19.5 11.5334 19.4575 11.0774 19.3763 10.6355C19.3015 10.2281 19.5711 9.83717 19.9785 9.76234C20.3859 9.68751 20.7768 9.95711 20.8516 10.3645C20.9491 10.8954 21 11.4421 21 12C21 16.9706 16.9706 21 12 21C7.02944 21 3 16.9706 3 12C3 7.02944 7.02944 3 12 3C13.81 3 15.4973 3.5351 16.9096 4.45594C17.2566 4.68218 17.3545 5.14685 17.1283 5.49383C16.902 5.8408 16.4373 5.93868 16.0904 5.71245C14.9143 4.94566 13.5104 4.5 12 4.5Z" fill="#04B77E" stroke="#04B77E" stroke-width="0.2"/>
<path d="M19.2803 6.96967C19.5732 7.26256 19.5732 7.73744 19.2803 8.03033L12.5303 14.7803C12.2374 15.0732 11.7626 15.0732 11.4697 14.7803L8.46967 11.7803C8.17678 11.4874 8.17678 11.0126 8.46967 10.7197C8.76256 10.4268 9.23744 10.4268 9.53033 10.7197L12 13.1893L18.2197 6.96967C18.5126 6.67678 18.9874 6.67678 19.2803 6.96967Z" fill="#04B77E" stroke="#04B77E" stroke-width="0.2"/>
</svg>
