<svg width="24" height="24" viewBox="0 0 24 24" fill="none" xmlns="http://www.w3.org/2000/svg">
<path fill-rule="evenodd" clip-rule="evenodd" d="M12 4.69565C7.96592 4.69565 4.69565 7.96592 4.69565 12C4.69565 16.0341 7.96592 19.3043 12 19.3043C16.0341 19.3043 19.3043 16.0341 19.3043 12C19.3043 7.96592 16.0341 4.69565 12 4.69565ZM4 12C4 7.58172 7.58172 4 12 4C16.4183 4 20 7.58172 20 12C20 16.4183 16.4183 20 12 20C7.58172 20 4 16.4183 4 12ZM8.97144 8.97144C9.10728 8.83561 9.32751 8.83561 9.46334 8.97144L12 11.5081L14.5367 8.97144C14.6725 8.83561 14.8927 8.83561 15.0286 8.97144C15.1644 9.10728 15.1644 9.32751 15.0286 9.46334L12.4919 12L15.0286 14.5367C15.1644 14.6725 15.1644 14.8927 15.0286 15.0286C14.8927 15.1644 14.6725 15.1644 14.5367 15.0286L12 12.4919L9.46334 15.0286C9.32751 15.1644 9.10728 15.1644 8.97144 15.0286C8.83561 14.8927 8.83561 14.6725 8.97144 14.5367L11.5081 12L8.97144 9.46334C8.83561 9.32751 8.83561 9.10728 8.97144 8.97144Z" fill="#EC5252" stroke="#EC5252" stroke-width="0.6"/>
</svg>
