<svg width="14" height="12" viewBox="0 0 14 12" fill="none" xmlns="http://www.w3.org/2000/svg">
<path d="M9.8382 0C8.76774 0 7.76473 0.400386 6.99998 1.11676C6.23523 0.400386 5.23222 0 4.16176 0C1.86697 0 0 1.86701 0 4.16184C0 5.29219 0.372019 6.40501 1.1057 7.46929C1.67297 8.29218 2.45776 9.0876 3.43819 9.8334C5.08288 11.0845 6.70666 11.7661 6.77499 11.7945L6.9983 11.8874L7.22211 11.7957C7.29049 11.7678 8.91532 11.0958 10.5609 9.84922C11.5419 9.10604 12.3271 8.3109 12.8946 7.48582C13.6281 6.4195 14 5.30118 14 4.16188C14 1.86701 12.133 0 9.8382 0Z" fill="white"/>
</svg>
