<svg width="25" height="24" viewBox="0 0 25 24" fill="none" xmlns="http://www.w3.org/2000/svg">
<path d="M12.4978 7.89523C10.2264 7.89523 8.39315 9.72847 8.39315 12C8.39315 14.2715 10.2264 16.1048 12.4978 16.1048C14.7693 16.1048 16.6025 14.2715 16.6025 12C16.6025 9.72847 14.7693 7.89523 12.4978 7.89523ZM12.4978 14.6678C11.0289 14.6678 9.8301 13.469 9.8301 12C9.8301 10.531 11.0289 9.3322 12.4978 9.3322C13.9668 9.3322 15.1656 10.531 15.1656 12C15.1656 13.469 13.9668 14.6678 12.4978 14.6678ZM16.7707 6.77047C16.2403 6.77047 15.812 7.19876 15.812 7.72911C15.812 8.25947 16.2403 8.68776 16.7707 8.68776C17.301 8.68776 17.7293 8.26147 17.7293 7.72911C17.7294 7.60318 17.7048 7.47845 17.6566 7.36207C17.6085 7.24569 17.5379 7.13995 17.4489 7.0509C17.3598 6.96185 17.2541 6.89124 17.1377 6.84312C17.0213 6.795 16.8966 6.77031 16.7707 6.77047ZM20.4991 12C20.4991 10.8953 20.5091 9.80051 20.4471 8.69777C20.385 7.4169 20.0928 6.28014 19.1562 5.3435C18.2176 4.40487 17.0829 4.11467 15.802 4.05263C14.6973 3.99059 13.6026 4.0006 12.4998 4.0006C11.3951 4.0006 10.3004 3.99059 9.19768 4.05263C7.91684 4.11467 6.78009 4.40687 5.84348 5.3435C4.90486 6.28214 4.61467 7.4169 4.55263 8.69777C4.49059 9.80252 4.5006 10.8973 4.5006 12C4.5006 13.1027 4.49059 14.1995 4.55263 15.3022C4.61467 16.5831 4.90686 17.7199 5.84348 18.6565C6.78209 19.5951 7.91684 19.8853 9.19768 19.9474C10.3024 20.0094 11.3971 19.9994 12.4998 19.9994C13.6046 19.9994 14.6993 20.0094 15.802 19.9474C17.0829 19.8853 18.2196 19.5931 19.1562 18.6565C20.0948 17.7179 20.385 16.5831 20.4471 15.3022C20.5111 14.1995 20.4991 13.1047 20.4991 12ZM18.7379 16.7192C18.5919 17.0834 18.4157 17.3556 18.1336 17.6358C17.8514 17.918 17.5812 18.0941 17.217 18.2402C16.1643 18.6585 13.6646 18.5644 12.4978 18.5644C11.3311 18.5644 8.82944 18.6585 7.77675 18.2422C7.41251 18.0961 7.14033 17.92 6.86015 17.6378C6.57796 17.3556 6.40184 17.0854 6.25575 16.7212C5.83948 15.6665 5.93354 13.1668 5.93354 12C5.93354 10.8332 5.83948 8.33152 6.25575 7.27881C6.40184 6.91456 6.57796 6.64238 6.86015 6.36219C7.14233 6.082 7.41251 5.90388 7.77675 5.75778C8.82944 5.3415 11.3311 5.43556 12.4978 5.43556C13.6646 5.43556 16.1663 5.3415 17.219 5.75778C17.5832 5.90388 17.8554 6.08 18.1356 6.36219C18.4177 6.64438 18.5939 6.91456 18.74 7.27881C19.1562 8.33152 19.0622 10.8332 19.0622 12C19.0622 13.1668 19.1562 15.6665 18.7379 16.7192Z" fill="white"/>
</svg>
