<svg width="24" height="24" viewBox="0 0 24 24" fill="none" xmlns="http://www.w3.org/2000/svg">
<path d="M17.25 21H6.75C5.78556 21 5 20.1929 5 19.2V10.8C5 9.80713 5.78556 9 6.75 9H17.25C18.2144 9 19 9.80713 19 10.8V19.2C19 20.1929 18.2144 21 17.25 21ZM6.75 10.2C6.42871 10.2 6.16667 10.4688 6.16667 10.8V19.2C6.16667 19.5312 6.42871 19.8 6.75 19.8H17.25C17.5713 19.8 17.8333 19.5312 17.8333 19.2V10.8C17.8333 10.4688 17.5713 10.2 17.25 10.2H6.75Z" fill="white"/>
<path d="M15.5 10C15.224 10 15 9.776 15 9.5V7C15 5.34595 13.6541 4 12 4C10.3459 4 9 5.34595 9 7V9.5C9 9.776 8.776 10 8.5 10C8.224 10 8 9.776 8 9.5V7C8 4.79395 9.79395 3 12 3C14.2061 3 16 4.79395 16 7V9.5C16 9.776 15.776 10 15.5 10Z" fill="white"/>
</svg>
