<svg viewBox="0 0 25 24" fill="none" xmlns="http://www.w3.org/2000/svg">
<path d="M12.109 4.00926C7.84892 4.21028 4.48721 7.72947 4.50004 11.9598C4.50397 13.2482 4.81756 14.4644 5.37083 15.5391L4.52149 19.6285C4.47558 19.8498 4.67671 20.0435 4.89826 19.9914L8.93805 19.0421C9.97596 19.555 11.1417 19.8511 12.3755 19.8698C16.7296 19.9358 20.3601 16.5065 20.496 12.1891C20.6413 7.56115 16.7907 3.78804 12.109 4.00926ZM16.9293 16.3289C15.7463 17.5023 14.1732 18.1487 12.5 18.1487C11.5204 18.1487 10.5823 17.9306 9.71205 17.5006L9.1496 17.2226L6.67261 17.8046L7.19394 15.2942L6.91687 14.7558C6.46504 13.8781 6.23595 12.9292 6.23595 11.9352C6.23595 10.2754 6.88755 8.71519 8.07058 7.5416C9.24307 6.37847 10.8418 5.72179 12.5001 5.72179C14.1732 5.72179 15.7463 6.36813 16.9293 7.5416C18.1123 8.71508 18.7639 10.2755 18.7639 11.935C18.764 13.58 18.1019 15.1658 16.9293 16.3289Z" fill="white"/>
<path d="M15.6769 13.329L14.4673 12.9845C14.3084 12.9393 14.1371 12.9841 14.0212 13.1012L13.7254 13.4C13.6007 13.5262 13.4114 13.5666 13.2464 13.5004C12.6741 13.2707 11.4704 12.2091 11.1632 11.6782C11.0744 11.525 11.0891 11.3336 11.198 11.1937L11.4562 10.8623C11.5574 10.7325 11.5787 10.5581 11.5118 10.408L11.0029 9.2663C10.881 8.99288 10.5288 8.91324 10.2986 9.10634C9.96104 9.38961 9.56048 9.8199 9.51186 10.2967C9.42598 11.1374 9.7895 12.1971 11.1638 13.4695C12.7515 14.9397 14.0231 15.1337 14.8511 14.9348C15.3207 14.8221 15.696 14.3699 15.9326 13.9995C16.0942 13.7468 15.9665 13.4115 15.6769 13.329Z" fill="white"/>
</svg>
