<svg width="24" height="25" viewBox="0 0 24 25" fill="none" xmlns="http://www.w3.org/2000/svg">
<path d="M11.609 4.26591C7.34892 4.46951 3.98721 8.03383 4.00004 12.3184C4.00397 13.6234 4.31756 14.8551 4.87083 15.9436L4.02149 20.0855C3.97558 20.3096 4.17671 20.5058 4.39826 20.4531L8.43805 19.4916C9.47596 20.011 10.6417 20.311 11.8755 20.3299C16.2296 20.3967 19.8601 16.9235 19.996 12.5507C20.1413 7.86336 16.2907 4.04185 11.609 4.26591ZM16.4293 16.7435C15.2463 17.932 13.6732 18.5867 12 18.5867C11.0204 18.5867 10.0823 18.3658 9.21205 17.9303L8.6496 17.6487L6.17261 18.2382L6.69394 15.6956L6.41687 15.1502C5.96504 14.2614 5.73595 13.3003 5.73595 12.2935C5.73595 10.6125 6.38755 9.0322 7.57058 7.84356C8.74307 6.66551 10.3418 6.0004 12.0001 6.0004C13.6732 6.0004 15.2463 6.65503 16.4293 7.84356C17.6123 9.03209 18.2639 10.6125 18.2639 12.2933C18.264 13.9594 17.6019 15.5655 16.4293 16.7435Z" fill="#04B77E"/>
<path d="M15.1769 13.7052L13.9673 13.3563C13.8084 13.3105 13.6371 13.3558 13.5212 13.4744L13.2254 13.7771C13.1007 13.9049 12.9114 13.9459 12.7464 13.8788C12.1741 13.6461 10.9704 12.5709 10.6632 12.0332C10.5744 11.878 10.5891 11.6842 10.698 11.5425L10.9562 11.2068C11.0574 11.0754 11.0787 10.8987 11.0118 10.7467L10.5029 9.59036C10.381 9.31344 10.0288 9.23277 9.7986 9.42835C9.46104 9.71525 9.06048 10.1511 9.01186 10.634C8.92598 11.4855 9.2895 12.5587 10.6638 13.8475C12.2515 15.3365 13.5231 15.533 14.3511 15.3316C14.8207 15.2174 15.196 14.7594 15.4326 14.3843C15.5942 14.1284 15.4665 13.7888 15.1769 13.7052Z" fill="#04B77E"/>
</svg>
